<svg xmlns="http://www.w3.org/2000/svg" xmlns:xlink="http://www.w3.org/1999/xlink" width="41px" height="39px" viewBox="0 0 41 39" version="1.1">
    <!-- Generator: Sketch 63.1 (92452) - https://sketch.com -->
    <title>Combined Shape</title>
    <desc>Created with Sketch.</desc>
    <g id="Public" stroke="none" stroke-width="1" fill="none" fill-rule="evenodd">
        <g id="Public/Pages/Home-page-brand-manager" transform="translate(-701.000000, -1639.000000)" fill="#20C5E5" fill-rule="nonzero">
            <g id="hiw" transform="translate(0.000000, 1510.000000)">
                <g id="head" transform="translate(346.000000, 128.000000)">
                    <g id="icon" transform="translate(353.000000, 0.000000)">
                        <g id="settings" transform="translate(2.000000, 1.000000)">
                            <path d="M10,19 C11.1816071,19 12.1428571,19.9601871 12.1428571,21.1407334 L12.1428571,21.1407334 L12.1428571,21.4385932 C12.7316071,21.6046661 13.2966071,21.8389539 13.8308929,22.1385995 L13.8308929,22.1385995 L14.0423214,21.927169 C14.44625,21.5228797 14.9833929,21.2996634 15.5546429,21.2993062 L15.5546429,21.2993062 C16.1273214,21.2993062 16.665,21.5227011 17.0710714,21.9287761 C17.9067857,22.7641408 17.9075,24.1229029 17.0725,24.9575532 L17.0725,24.9575532 L16.8610714,25.1686265 C17.1610714,25.7036313 17.3953571,26.2682792 17.5614286,26.8570344 L17.5614286,26.8570344 L17.8592857,26.8570344 C19.0394643,26.8570344 20,27.818293 20,28.9999107 C20,30.1815284 19.0394643,31.142787 17.8592857,31.142787 L17.8592857,31.142787 L17.5614286,31.142787 C17.3953571,31.7315422 17.1610714,32.2961901 16.8610714,32.8311949 L16.8610714,32.8311949 L17.0725,33.0422682 C17.4771429,33.4465576 17.7003571,33.9837052 17.7003571,34.5546032 C17.7008929,35.1258583 17.4771429,35.6647916 17.0710714,36.0710453 C16.2360714,36.9060527 14.8773214,36.9074813 14.0423214,36.0724739 L14.0423214,36.0724739 L13.8308929,35.8614005 C13.2966071,36.1610461 12.7316071,36.3953339 12.1428571,36.5614068 L12.1428571,36.5614068 L12.1428571,36.8592666 C12.1428571,38.0398129 11.1816071,39 10,39 C8.81839286,39 7.85714286,38.0398129 7.85714286,36.8592666 L7.85714286,36.8592666 L7.85714286,36.5614068 C7.26839286,36.3953339 6.70339286,36.1610461 6.16910714,35.8614005 L6.16910714,35.8614005 L5.95767857,36.072831 C5.55303571,36.4774775 5.01589286,36.7003366 4.44535714,36.7006938 L4.44535714,36.7006938 C3.87267857,36.7006938 3.335,36.4772989 2.92892857,36.0712239 C2.09321429,35.2358592 2.0925,33.8770971 2.9275,33.0424468 L2.9275,33.0424468 L3.13821429,32.8313735 C2.83892857,32.2963687 2.60464286,31.7313637 2.43857143,31.1429656 L2.43857143,31.1429656 L2.14071429,31.1429656 C0.960535714,31.1429656 0,30.181707 0,29.0000893 C0,27.8184716 0.960535714,26.857213 2.14071429,26.857213 L2.14071429,26.857213 L2.43857143,26.857213 C2.60464286,26.2688149 2.83892857,25.7038099 3.13821429,25.1688051 L3.13821429,25.1688051 L2.9275,24.9573746 C2.52285714,24.5534424 2.29964286,24.0162948 2.29964286,23.4453968 C2.29910714,22.8741417 2.52285714,22.3352084 2.92892857,21.9289547 C3.76392857,21.0935901 5.12267857,21.0928758 5.95767857,21.9275261 L5.95767857,21.9275261 L6.16910714,22.1385995 C6.70339286,21.8389539 7.26839286,21.6046661 7.85714286,21.4385932 L7.85714286,21.4385932 L7.85714286,21.1407334 C7.85714286,19.9601871 8.81839286,19 10,19 Z M9.99982143,20.4287628 C9.59946429,20.4287628 9.28553571,20.7416227 9.28553571,21.140912 L9.28553571,21.140912 L9.28553571,22.0002054 C9.28553571,22.3398512 9.04625,22.6328896 8.71285714,22.7002116 C7.90517857,22.8641416 7.14553571,23.1791445 6.455,23.6359342 C6.17321429,23.8239716 5.79660714,23.7862927 5.55589286,23.5459334 L5.55589286,23.5459334 L4.94767857,22.9380709 C4.66875,22.6591398 4.21678571,22.6609255 3.93910714,22.9391423 C3.80303571,23.0755721 3.72767857,23.2552166 3.72839286,23.4448611 C3.72839286,23.6341485 3.80232143,23.8127215 3.93767857,23.9473656 L3.93767857,23.9473656 L4.54517857,24.5562996 C4.78517857,24.7961232 4.82285714,25.172198 4.63589286,25.4550576 C4.17910714,26.1459567 3.86375,26.9057849 3.70053571,27.7132921 C3.63285714,28.0463308 3.33982143,28.2856186 3.00017857,28.2856186 L3.00017857,28.2856186 L2.14089286,28.2856186 C1.74821429,28.2856186 1.42875,28.6061572 1.42875,28.9999107 C1.42875,29.3936642 1.74821429,29.7142028 2.14089286,29.7142028 L2.14089286,29.7142028 L3.00035714,29.7142028 C3.34,29.7142028 3.63303571,29.9534907 3.70071429,30.2865293 C3.86392857,31.093858 4.17928571,31.8538648 4.63607143,32.5447638 C4.82303571,32.8276235 4.78535714,33.2035197 4.54535714,33.4435218 L4.54535714,33.4435218 L3.93785714,34.0517415 C3.66035714,34.3296012 3.66107143,34.7824623 3.93928571,35.0606791 C4.07535714,35.1971089 4.25464286,35.2717524 4.44428571,35.2717524 L4.44428571,35.2717524 L4.55685143,35.2629095 C4.70362857,35.2394807 4.83957143,35.1701087 4.94785714,35.0621077 L4.94785714,35.0621077 L5.55607143,34.453888 C5.69410714,34.3160296 5.87696429,34.2449575 6.06107143,34.2449575 C6.19767857,34.2449575 6.33517857,34.284065 6.45517857,34.3638872 C7.14571429,34.820677 7.90517857,35.1356798 8.71303571,35.2996098 C9.04642857,35.3669318 9.28571429,35.6599702 9.28571429,35.9996161 L9.28571429,35.9996161 L9.28571429,36.8589095 C9.28571429,37.2515915 9.60589286,37.5710587 10,37.5710587 C10.4003571,37.5710587 10.7142857,37.2581987 10.7142857,36.8589095 L10.7142857,36.8589095 L10.7142857,35.9996161 C10.7142857,35.6597916 10.9535714,35.3667533 11.2871429,35.2996098 C12.0948214,35.1356798 12.8544643,34.820677 13.545,34.3638872 C13.8267857,34.1765641 14.2033929,34.2138858 14.4441071,34.453888 L14.4441071,34.453888 L15.0523214,35.0617506 C15.3305357,35.3403245 15.7826786,35.3387173 16.0608929,35.0606791 C16.1969643,34.9242493 16.2723214,34.7446049 16.2716071,34.5549603 C16.2716071,34.3656729 16.1976786,34.1870999 16.0623214,34.0524558 L16.0623214,34.0524558 L15.4541071,33.443879 C15.2141071,33.2036982 15.1757143,32.8276235 15.3633929,32.5444066 C15.8208929,31.8538648 16.13625,31.0943937 16.2994643,30.2865293 C16.3671429,29.9534907 16.6601786,29.7142028 16.9998214,29.7142028 L16.9998214,29.7142028 L17.8592857,29.7142028 C18.2519643,29.7142028 18.5708929,29.3936642 18.5708929,28.9999107 C18.5708929,28.6061572 18.2514286,28.2856186 17.85875,28.2856186 L17.85875,28.2856186 L16.9994643,28.2856186 C16.6598214,28.2856186 16.3667857,28.0463308 16.2991071,27.7132921 C16.1358929,26.9056063 15.8205357,26.1459567 15.3630357,25.4554148 C15.1755357,25.172198 15.21375,24.7963018 15.45375,24.5559425 L15.45375,24.5559425 L16.0619643,23.9477227 C16.3394643,23.6702203 16.33875,23.2173591 16.0605357,22.9391423 C15.9244643,22.8027125 15.7451786,22.728069 15.5555357,22.728069 C15.5548214,22.728069 15.5548214,22.728069 15.5548214,22.728069 L15.4429757,22.7368748 C15.2962214,22.7602121 15.1603929,22.8293556 15.0526786,22.9373566 L15.0526786,22.9373566 L14.44375,23.5459334 C14.2032143,23.7862927 13.8264286,23.8239716 13.5446429,23.6359342 C12.8541071,23.1791445 12.0946429,22.8641416 11.2867857,22.7002116 C10.9533929,22.6328896 10.7141071,22.3398512 10.7141071,22.0002054 L10.7141071,22.0002054 L10.7141071,21.140912 C10.7141071,20.7482299 10.3939286,20.4287628 9.99982143,20.4287628 Z M10,26 C11.6546875,26 13,27.345875 13,29 C13,30.654125 11.6545,32 10,32 C8.3455,32 7,30.654125 7,29 C7,27.345875 8.3455,26 10,26 Z M27.8994514,10.0684523 C29.1178485,9.76334208 30.3518121,10.5072542 30.6550837,11.7216513 L30.6550837,11.7216513 L30.7402414,12.0621074 C31.4161927,12.0807876 32.0844523,12.1809649 32.7375117,12.361174 L32.7375117,12.361174 L32.9177165,12.0604592 C33.2310605,11.5399771 33.7268069,11.1724164 34.3141208,11.0257217 C34.9049143,10.877562 35.5143876,10.9702305 36.0374211,11.2850471 C36.5575245,11.5972997 36.9250764,12.0937905 37.0725001,12.6829499 C37.2191912,13.2721092 37.1283563,13.8830622 36.8164774,14.4028117 L36.8164774,14.4028117 L36.63554,14.7035265 C37.1018017,15.195622 37.5039661,15.7386302 37.8380043,16.3274233 L37.8380043,16.3274233 L38.1771704,16.2426298 C39.3919048,15.9404498 40.6287985,16.6823474 40.93207,17.8991253 C41.2355247,19.1153539 40.4936449,20.3515446 39.2781779,20.6551897 L39.2781779,20.6551897 L38.9373637,20.7396169 C38.9194165,21.4163169 38.8192416,22.0845924 38.6383043,22.7373012 L38.6383043,22.7373012 L38.9388288,22.9175103 C39.4596647,23.2304955 39.8272166,23.7262537 39.9739078,24.3135817 C40.1213314,24.9023748 40.0290314,25.5146097 39.7142223,26.0372894 C39.4023435,26.5570389 38.9058645,26.9245997 38.3170855,27.0720268 C37.7268414,27.2183552 37.1166356,27.1286169 36.5972648,26.8163643 L36.5972648,26.8163643 L36.2961908,26.6354226 C35.8041071,27.1013291 35.2611119,27.5038695 34.6723329,27.8375494 L34.6723329,27.8375494 L34.7574906,28.1774561 C34.9041818,28.7662491 34.8140794,29.3768358 34.5022005,29.896219 C34.1903216,30.4163348 33.6923775,30.7838955 33.1008515,30.9313227 C32.9171671,30.9771076 32.7311019,31 32.5465019,31 C32.1393928,31 31.738144,30.8899332 31.3804814,30.6749276 C30.8596455,30.3623087 30.4920935,29.8661842 30.3454024,29.2773911 L30.3454024,29.2773911 L30.2609772,28.9374844 C29.5842934,28.9188042 28.9160338,28.818627 28.2629744,28.6384179 L28.2629744,28.6384179 L28.0827696,28.9385833 C27.7694256,29.4597979 27.2736792,29.8273586 26.6863652,29.9740533 C26.0963043,30.1214805 25.4860985,30.0291782 24.963065,29.7147279 C24.4429616,29.4024753 24.0754097,28.9059845 23.927986,28.3168251 C23.7812949,27.7276658 23.8721298,27.1167129 24.1840087,26.5969633 L24.1840087,26.5969633 L24.3649461,26.2962485 C23.8986844,25.804153 23.4965199,25.2611448 23.1632143,24.672718 L23.1632143,24.672718 L22.8233157,24.7575115 C21.6093138,25.060424 20.3716876,24.3170613 20.068416,23.1006497 C19.9217249,22.5116735 20.0125598,21.9003542 20.3251713,21.3798722 C20.6377827,20.8592069 21.1342617,20.4918294 21.7223081,20.3451347 L21.7223081,20.3451347 L22.0627561,20.2599749 C22.0807033,19.5836412 22.1808782,18.9149994 22.3618155,18.2622907 L22.3618155,18.2622907 L22.061291,18.0820816 C21.5404551,17.7690964 21.1729032,17.2733381 21.026212,16.6860102 C20.8787884,16.0975834 20.9703559,15.4857148 21.2844324,14.9626687 C21.5970438,14.4421866 22.0942553,14.0746259 22.6830343,13.927565 C23.2730953,13.779039 23.883301,13.8713412 24.4034044,14.1839601 L24.4034044,14.1839601 L24.7039289,14.3643524 C25.1960127,13.8984459 25.7390079,13.4962718 26.3270544,13.1625919 L26.3270544,13.1625919 L26.2426292,12.8226852 C25.9393576,11.6071892 26.6832519,10.3717311 27.8994514,10.0684523 Z M10,27.5 C9.173125,27.5 8.5,28.17275 8.5,29 C8.5,29.82725 9.173125,30.5 10,30.5 C10.826875,30.5 11.5,29.82725 11.5,29 C11.5,28.17275 10.826875,27.5 10,27.5 Z M29.2332236,12.0767586 C29.1259065,11.6458316 28.6858331,11.3813784 28.2538176,11.4901632 C27.8208865,11.5982154 27.5555239,12.0370173 27.6635736,12.4684937 L27.6635736,12.4684937 L27.8875477,13.367708 C27.9727054,13.7057832 27.8067851,14.0566783 27.4919761,14.2064863 C26.6849002,14.5908958 25.9673773,15.1218168 25.3608342,15.7842319 C25.1255057,16.0413596 24.7427536,16.0974002 24.4436941,15.9175574 L24.4436941,15.9175574 L23.6481557,15.4399299 C23.4642882,15.32968 23.2474564,15.2965318 23.0379499,15.3490928 C22.8275278,15.4014706 22.6509857,15.5322322 22.5400059,15.7175692 C22.427561,15.9043714 22.3940473,16.1221241 22.4462408,16.3307198 C22.4986174,16.5389493 22.6293758,16.7147631 22.8147084,16.8261118 L22.8147084,16.8261118 L23.6102468,17.3039224 C23.9093062,17.4835821 24.0402477,17.848762 23.9235907,18.1774972 C23.6232494,19.0223191 23.4915753,19.9043183 23.5309493,20.7993204 C23.5466989,21.147102 23.3143006,21.4578895 22.9765997,21.5423168 L22.9765997,21.5423168 L22.0766743,21.7668456 C21.8677173,21.8190404 21.6917246,21.9492525 21.5809279,22.1342232 C21.4701312,22.319194 21.437167,22.5367635 21.490093,22.746275 C21.5988751,23.1859926 22.025946,23.4460505 22.4687664,23.3365332 L22.4687664,23.3365332 L23.3672266,23.1120043 C23.7091397,23.0283096 24.0561805,23.193135 24.2056186,23.5075853 C24.5911178,24.3157794 25.1220261,25.0329531 25.7844254,25.6395107 C26.0411807,25.8748448 26.0968537,26.2583386 25.9173814,26.5570389 L25.9173814,26.5570389 L25.4395822,27.3522301 C25.3287855,27.5364683 25.2965538,27.7533053 25.3487473,27.9624504 C25.4016733,28.172145 25.5318823,28.3483251 25.7172149,28.4596738 C25.9054776,28.5724877 26.1235914,28.6063685 26.3310834,28.5534412 C26.5393078,28.5014296 26.7151174,28.3706681 26.8260972,28.1853311 L26.8260972,28.1853311 L27.303347,27.3905062 C27.4830025,27.0910733 27.8492724,26.960495 28.1761684,27.0767885 C29.0224352,27.3764045 29.9058784,27.5102794 30.799394,27.4694393 C30.810199,27.469073 30.821004,27.4687067 30.8316258,27.4687067 C31.1663966,27.4687067 31.4605114,27.6965321 31.542739,28.0238021 L31.542739,28.0238021 L31.7667131,28.9233827 C31.8189065,29.1323447 31.9498481,29.3081585 32.1344481,29.419141 C32.3197808,29.5303066 32.5378945,29.5632717 32.746119,29.5103444 C32.9578231,29.4574171 33.1350977,29.3268387 33.2460775,29.1426005 C33.3561417,28.9587286 33.3883734,28.7422579 33.33618,28.5323802 L33.33618,28.5323802 L33.1116565,27.6324333 C33.0279638,27.294358 33.1931515,26.9438293 33.5079606,26.7940213 C34.3150365,26.4096118 35.0325594,25.8786907 35.6391025,25.2162756 C35.8751635,24.9595142 36.2586482,24.9043893 36.5562425,25.0829502 L36.5562425,25.0829502 L37.3517809,25.5607608 C37.536381,25.6719264 37.7517478,25.7041589 37.9619867,25.6512316 C38.1716763,25.5990369 38.3482184,25.4680923 38.4591982,25.2831215 C38.5723757,25.0955868 38.6051568,24.8778341 38.5529634,24.6692383 C38.5013193,24.4613752 38.3705609,24.2855614 38.1852283,24.1742126 L38.1852283,24.1742126 L37.3896899,23.6965852 C37.0906304,23.5169254 36.9596889,23.1517455 37.0763459,22.8233767 C37.3766873,21.9781885 37.5083614,21.095823 37.4689873,20.2008209 C37.4532377,19.852673 37.685636,19.5418855 38.023337,19.4578245 L38.023337,19.4578245 L38.922896,19.2338451 C39.354179,19.1261591 39.6175271,18.6864415 39.5094774,18.2540494 C39.3999627,17.813233 38.9706943,17.5564716 38.5315366,17.6641575 L38.5315366,17.6641575 L37.6323438,17.8885033 C37.2931777,17.9725642 36.9441224,17.8077388 36.7939518,17.4929222 C36.4084526,16.6847282 35.8775443,15.9675544 35.215145,15.3609968 C34.9583897,15.1256628 34.9027167,14.7421689 35.082189,14.4434686 L35.082189,14.4434686 L35.5599882,13.6482775 C35.6707848,13.4640393 35.7030166,13.2472023 35.6508231,13.0380571 C35.5978971,12.8283625 35.4676881,12.6521825 35.2823555,12.5408337 C35.0955578,12.4283862 34.8774441,12.3952379 34.668487,12.4470664 C34.4602625,12.499078 34.284453,12.6298395 34.1734731,12.8151765 L34.1734731,12.8151765 L33.695674,13.6107339 C33.515286,13.9094342 33.1504811,14.0407451 32.8228526,13.9237191 C31.9780509,13.6241031 31.0966221,13.4905945 30.2003595,13.5310683 C29.8571645,13.5393096 29.5416229,13.3144144 29.4571977,12.9763391 L29.4571977,12.9763391 Z M29.2748643,18.0905027 C30.0535258,17.8960212 30.8597905,18.0176172 31.5448178,18.4298532 C32.2312884,18.84245 32.7160575,19.4975173 32.9107229,20.2749023 C33.3103372,21.8794654 32.3306958,23.5101879 30.7261046,23.9105168 C30.4836299,23.9711345 30.2397118,24 30.0008453,24 C28.6562289,24 27.4306849,23.0880294 27.090246,21.7261172 C26.8964827,20.9487322 27.0169985,20.1426621 27.4299633,19.4558427 C27.8420261,18.7692037 28.4976461,18.2842626 29.2748643,18.0905027 Z M30.0037319,19.4439356 C29.8774429,19.4439356 29.7498911,19.4594509 29.6245042,19.4908421 C29.2207405,19.5916911 28.8812036,19.8431821 28.6668733,20.1994911 C28.4532645,20.5556197 28.3906613,20.9736287 28.4913316,21.3766638 C28.6991671,22.2092542 29.5454834,22.7180093 30.3764647,22.5101774 C30.7802285,22.4093284 31.1197653,22.1578374 31.3340957,21.8018893 C31.5482456,21.4455803 31.6103076,21.0273908 31.5098177,20.6241753 C31.4096886,20.2207794 31.1580128,19.8808877 30.8015172,19.6665611 C30.5561558,19.5193469 30.2821088,19.4439356 30.0037319,19.4439356 Z M12.15814,0.0239918668 C13.20153,-0.14245536 14.1937875,0.575001915 14.3600576,1.62231433 L14.3600576,1.62231433 L14.3865178,1.79090696 C14.8543985,1.85205083 15.3126248,1.96164498 15.7567271,2.11915304 L15.7567271,2.11915304 L15.8564892,1.98184749 C16.1582785,1.56581881 16.603811,1.29210162 17.1108456,1.21182793 C17.6151985,1.12923006 18.12563,1.25348444 18.5439873,1.55759478 C18.960199,1.85955973 19.2339191,2.30580278 19.3141936,2.81426241 C19.3951833,3.32200691 19.273073,3.83046653 18.9705686,4.2456013 L18.9705686,4.2456013 L18.8713428,4.38219172 C19.158293,4.75584876 19.4041225,5.15739599 19.6074012,5.58343653 L19.6074012,5.58343653 L19.7751017,5.5569766 C20.8170614,5.39035059 21.8093189,6.10870178 21.975589,7.15762325 C22.0565787,7.66536774 21.9344685,8.17418494 21.6326792,8.5903924 C21.3301747,9.00642108 20.8846422,9.2797807 20.3768924,9.36041196 L20.3768924,9.36041196 L20.209192,9.38687188 C20.1476899,9.85403257 20.0380946,10.3118965 19.8809425,10.7563518 L19.8809425,10.7563518 L20.0178919,10.855934 C20.4342824,11.1584353 20.7072873,11.6039633 20.7875619,12.1099199 C20.8685515,12.6174856 20.7455473,13.127018 20.4419702,13.5444769 C20.1403597,13.9605056 19.694112,14.2338652 19.1856471,14.3144965 C18.6771822,14.3936974 18.1694324,14.2726612 17.7546509,13.970875 L17.7546509,13.970875 L17.6177015,13.8716503 C17.2440406,14.1582399 16.8424892,14.4040669 16.4164442,14.6069859 L16.4164442,14.6069859 L16.4429044,14.7750422 C16.6084594,15.8228909 15.8904583,16.8099534 14.8422411,16.9758643 C14.7403336,16.9919548 14.6375322,17 14.5363398,17 C14.1333581,17 13.7416399,16.8736002 13.4098147,16.6326004 C12.9934241,16.3302779 12.7197041,15.8843924 12.6401447,15.3766479 L12.6401447,15.3766479 L12.6129693,15.2093067 C12.1458038,15.1481629 11.6875775,15.0382111 11.2434752,14.8807031 L11.2434752,14.8807031 L11.1437131,15.0183662 C10.5201106,15.8759896 9.31527761,16.0665725 8.45567871,15.4426189 C7.5973313,14.8186653 7.40531607,13.6129509 8.02820346,12.75497 L8.02820346,12.75497 L8.12796556,12.6173068 C7.84101543,12.2436498 7.59518588,11.8421026 7.39262232,11.4164196 L7.39262232,11.4164196 L7.22420673,11.4432371 C6.18153185,11.609148 5.18998952,10.8911543 5.02371935,9.84259044 C4.8583431,8.79366898 5.57545026,7.80553383 6.62241598,7.63962295 L6.62241598,7.63962295 L6.79083158,7.61316303 C6.85161852,7.1452872 6.96192895,6.68778081 7.11908107,6.24404072 L7.11908107,6.24404072 L6.98141652,6.14427966 C6.5657411,5.84213592 6.29202106,5.39660801 6.21174654,4.89029378 C6.13093566,4.38254928 6.25376104,3.87301695 6.55751698,3.45537923 C7.18183466,2.59721952 8.38791914,2.40556385 9.24501506,3.02880234 L9.24501506,3.02880234 L9.38267961,3.1285634 C9.75634053,2.84161625 10.1578919,2.59578925 10.5839369,2.39287024 L10.5839369,2.39287024 L10.5574767,2.22481396 C10.476487,1.71742703 10.5978821,1.2089674 10.8996714,0.794190207 C11.201282,0.378340314 11.6482448,0.10498069 12.15814,0.0239918668 Z M12.4700921,1.43018534 L12.381085,1.43691607 C12.2491416,1.4580125 12.134004,1.52809554 12.0564112,1.63465037 C11.9795336,1.74049007 11.9489614,1.87082308 11.9691641,2.0009773 L11.9691641,2.0009773 L12.0830502,2.72129511 C12.1368645,3.05722888 11.9453857,3.3840447 11.6269693,3.50311436 C10.9844156,3.74304151 10.4019336,4.09953536 9.89704443,4.56258404 C9.64620889,4.79303568 9.26843591,4.81466845 8.9932856,4.6142524 L8.9932856,4.6142524 L8.40383102,4.18624525 C8.18607073,4.02766449 7.87444825,4.07593597 7.7138992,4.29726966 C7.63559132,4.40507597 7.60358878,4.53612411 7.6237915,4.66592077 C7.64470936,4.79518108 7.71443556,4.90924481 7.82206421,4.98719431 L7.82206421,4.98719431 L8.41134,5.41555903 C8.68649031,5.61561752 8.7828555,5.98194444 8.64107889,6.29123951 C8.35698932,6.9134053 8.19769177,7.57687002 8.168371,8.26339779 C8.15371062,8.60344358 7.90162359,8.88592115 7.56568633,8.93901978 L7.56568633,8.93901978 L6.84571861,9.05290473 C6.57754092,9.09545515 6.39392859,9.34968496 6.43647945,9.6196477 C6.47903031,9.89300733 6.72485986,10.0767965 7.00072532,10.031028 L7.00072532,10.031028 L7.72069304,9.9167855 C8.05448488,9.8654747 8.38344952,10.0544486 8.50216284,10.3735768 C8.74173492,11.0157663 9.09859004,11.5978846 9.56235866,12.1034837 C9.79209756,12.3543166 9.81373056,12.7320857 9.61331243,13.0072332 L9.61331243,13.0072332 L9.18530083,13.5959665 C9.02600327,13.8158699 9.07570554,14.1257013 9.29632639,14.2858911 C9.52177444,14.449299 9.82427888,14.4017427 9.98697335,14.177906 L9.98697335,14.177906 L10.414985,13.5888151 C10.5524707,13.3989473 10.7704098,13.2941803 10.9931761,13.2941803 C11.0929382,13.2941803 11.1943093,13.315098 11.2899594,13.3587211 C11.9128468,13.6426289 12.5763184,13.801746 13.2628533,13.8317816 C13.6023663,13.8464418 13.8844892,14.0981687 13.9375884,14.4337449 L13.9375884,14.4337449 L14.0521896,15.1531688 C14.0732863,15.2838594 14.1430125,15.3979231 14.249926,15.475515 C14.3559456,15.5527494 14.4852072,15.5847516 14.6185809,15.5634764 C14.892301,15.5202108 15.0732315,15.2718809 15.0306807,14.9985213 L15.0306807,14.9985213 L14.9167945,14.2794549 C14.8636953,13.9438787 15.0537439,13.6170629 15.3721603,13.4979932 C16.0161443,13.2569934 16.5986263,12.9004995 17.1028003,12.438166 C17.354351,12.2077144 17.7328391,12.1871543 18.0065592,12.3864976 L18.0065592,12.3864976 L18.5952986,12.8141472 C18.7007818,12.891024 18.8320101,12.9207021 18.9612717,12.9021086 C19.0925,12.881191 19.2069225,12.8111079 19.2845153,12.7038379 C19.3635383,12.5953165 19.3955408,12.4642684 19.3753381,12.3344717 C19.3544202,12.2052114 19.2839789,12.0911477 19.1770654,12.0128406 L19.1770654,12.0128406 L18.588326,11.5853698 C18.3131756,11.3856689 18.2168105,11.0196995 18.3576931,10.7102257 C18.6424979,10.0859145 18.8017954,9.42173462 18.8311162,8.73699468 C18.8457766,8.3969489 19.0978636,8.11447133 19.4338008,8.06137269 L19.4338008,8.06137269 L20.1532322,7.94748775 C20.283209,7.92674889 20.3969163,7.85666585 20.4745091,7.75011101 C20.5521018,7.64301983 20.5833892,7.51232926 20.5631865,7.38181747 C20.5199205,7.10702758 20.2719455,6.92216568 19.9982255,6.96972203 L19.9982255,6.96972203 L19.2787941,7.08360697 C18.9491144,7.1377783 18.6167528,6.94665899 18.4973243,6.62753084 C18.256322,5.98391106 17.900182,5.40179272 17.4371285,4.89726633 C17.2073896,4.64679096 17.1857566,4.2690219 17.3854596,3.99387445 L17.3854596,3.99387445 L17.8127561,3.40460478 C17.8903488,3.29769238 17.9216362,3.16771694 17.9014335,3.03792029 C17.8805156,2.90705093 17.8100743,2.79227207 17.7031608,2.71432256 C17.5949958,2.63565792 17.4657341,2.60258302 17.3337907,2.62421579 C17.2045291,2.64495465 17.0908217,2.71503769 17.013229,2.82195009 L17.013229,2.82195009 L16.5845022,3.41139854 C16.3847992,3.68690357 16.0195412,3.78326775 15.7095278,3.64149262 C15.0866404,3.35740599 14.4224536,3.19846766 13.7366339,3.16878964 C13.3965846,3.15412941 13.1144616,2.902045 13.0613624,2.56611123 L13.0613624,2.56611123 L12.9474763,1.84650855 C12.9042103,1.57869121 12.650693,1.39150512 12.381085,1.43691607 Z M11.4783047,7.03003706 C12.2876838,5.91492062 13.8541556,5.66578195 14.9705405,6.47680784 C16.085689,7.28712697 16.3333427,8.85387351 15.5239636,9.96952003 L15.5239636,9.96952003 L15.4057398,10.1194564 C14.917096,10.6952748 14.2113553,11 13.4973363,11 C12.9873674,11 12.4740423,10.8450393 12.0310212,10.523456 C11.4908464,10.1308417 11.1354403,9.55093172 11.0312208,8.89115597 C10.9270013,8.2317336 11.0856269,7.5703676 11.4783047,7.03003706 Z M13.5022823,7.41293316 C13.1656004,7.41293316 12.8336879,7.56824727 12.6211861,7.8608527 C12.4507254,8.09585584 12.381658,8.38333714 12.4272319,8.67011165 C12.4720993,8.95706287 12.6266621,9.20885195 12.8619508,9.37971514 C13.3477195,9.73239656 14.0288557,9.6233763 14.3807289,9.13888109 C14.7326021,8.6536791 14.6241432,7.97252336 14.1397876,7.62037203 C13.9474232,7.480607 13.7237929,7.41293316 13.5022823,7.41293316 Z" id="Combined-Shape"></path>
                        </g>
                    </g>
                </g>
            </g>
        </g>
    </g>
</svg>