<svg xmlns="http://www.w3.org/2000/svg" xmlns:xlink="http://www.w3.org/1999/xlink" width="43px" height="45px" viewBox="0 0 43 45" version="1.1">
    <!-- Generator: Sketch 63.1 (92452) - https://sketch.com -->
    <title>Combined Shape</title>
    <desc>Created with Sketch.</desc>
    <g id="Public" stroke="none" stroke-width="1" fill="none" fill-rule="evenodd">
        <g id="Public/Pages/Home-page-brand-manager" transform="translate(-703.000000, -4609.000000)" fill="#20C5E5" fill-rule="nonzero">
            <g id="persona" transform="translate(-64.000000, 4519.000000)">
                <g id="head" transform="translate(229.500000, 87.000000)">
                    <g transform="translate(360.000000, 0.000000)" id="icon">
                        <g transform="translate(174.000000, 0.000000)">
                            <g transform="translate(28.741572, 24.602520) rotate(-23.000000) translate(-28.741572, -24.602520) translate(5.241572, 8.102520)" id="rule">
                                <g transform="translate(0.161929, 0.119252)">
                                    <path d="M1.62514863,4.48561873 L27.2517985,5.5219077 C27.5420418,5.53371737 27.7979776,5.71746239 27.9021892,5.98908574 C28.0064525,6.26065905 27.9388594,6.56743378 27.7304362,6.76870576 L27.7304362,6.76870576 L2.24508678,31.3796216 C2.03661174,31.5809436 1.72771673,31.6377392 1.45994759,31.5240616 C1.19217845,31.410384 1.01742713,31.1481394 1.01580426,30.8577129 L1.01580426,30.8577129 L0.874555561,5.21045803 C0.873462835,5.01306216 0.953003045,4.82410055 1.09464588,4.68731765 C1.23628872,4.55053475 1.42791114,4.47763766 1.62514863,4.48561873 L1.62514863,4.48561873 Z M38.7301875,-1.45519152e-11 C38.8973125,-1.45519152e-11 39.0575,0.0643613281 39.17575,0.178794922 L39.17575,0.178794922 L45.8154375,6.61099219 C45.9335625,6.72548633 46,6.88072852 46,7.04263086 C46,7.20447266 45.9335625,7.35977539 45.8154375,7.47420898 L45.8154375,7.47420898 L21.7153125,30.8212051 C21.59225,30.9404219 21.4310625,31 21.2698125,31 C21.108625,31 20.947375,30.9404219 20.8243125,30.8212051 L20.8243125,30.8212051 L14.1845625,24.3889473 C14.0664375,24.2745137 14,24.1192109 14,23.9573691 C14,23.7955273 14.0664375,23.6402852 14.1845,23.525791 L14.1845,23.525791 L16.3753125,21.403502 L16.3753125,21.403502 L38.2846875,0.178794922 C38.402875,0.0643613281 38.5630625,-1.45519152e-11 38.7301875,-1.45519152e-11 Z M38.730125,1.47365039 L37.4305,2.73266211 L39.4436875,4.68336133 C39.68975,4.92173437 39.68975,5.30820508 39.4436875,5.54657812 C39.3206875,5.66573437 39.159375,5.72537305 38.9981875,5.72537305 C38.837,5.72537305 38.67575,5.66579492 38.5526875,5.54657812 L38.5526875,5.54657812 L36.5390625,3.59587891 L35.2390625,4.85525391 L36.3424375,5.92426953 C36.5885,6.16270312 36.5885,6.54917383 36.3424375,6.78754687 C36.219375,6.90676367 36.058125,6.9663418 35.8969375,6.9663418 C35.73575,6.9663418 35.5745,6.90676367 35.4514375,6.78754687 L35.4514375,6.78754687 L34.3479375,5.71853125 L33.048,6.9778457 L35.061625,8.92860547 C35.3076875,9.16697852 35.3076875,9.55344922 35.061625,9.79182227 C34.9385625,9.91097852 34.777375,9.97061719 34.616125,9.97061719 C34.4549375,9.97061719 34.2936875,9.91103906 34.170625,9.79182227 L34.170625,9.79182227 L32.1570625,7.84112305 L30.857375,9.10019531 L31.96075,10.1695137 C32.2068125,10.4078867 32.2068125,10.7943574 31.96075,11.0327305 C31.83775,11.1518867 31.6764375,11.2115254 31.51525,11.2115254 C31.3540625,11.2115254 31.1928125,11.1519473 31.06975,11.0327305 L31.06975,11.0327305 L29.9659375,9.96341211 L28.6663125,11.2224238 L30.6799375,13.173123 C30.926,13.4115566 30.926,13.7980273 30.6799375,14.0364004 C30.5569375,14.1556172 30.395625,14.2151953 30.2344375,14.2151953 C30.07325,14.2151953 29.912,14.1556172 29.7889375,14.0364004 L29.7889375,14.0364004 L27.7753125,12.0857012 L26.475125,13.3452578 L27.57875,14.4139102 C27.824875,14.6522832 27.8249375,15.0387539 27.5789375,15.2771875 C27.4559375,15.3964043 27.2946875,15.456043 27.133375,15.456043 C26.97225,15.456043 26.811,15.3965254 26.688,15.2773691 L26.688,15.2773691 L25.5841875,14.2084746 L24.2844375,15.4676074 L26.2980625,17.4183066 C26.544125,17.6566797 26.544125,18.0431504 26.2980625,18.2815234 C26.1750625,18.4006797 26.0138125,18.4603184 25.8525625,18.4603184 C25.691375,18.4603184 25.530125,18.4007402 25.4070625,18.2815234 L25.4070625,18.2815234 L23.3935,16.3308242 L22.0938125,17.5898965 L23.197625,18.6592148 C23.4436875,18.8976484 23.4436875,19.2841191 23.197625,19.5224922 C23.0745625,19.641709 22.9133125,19.7012871 22.752125,19.7012871 C22.5909375,19.7012871 22.4296875,19.641709 22.306625,19.5224922 L22.306625,19.5224922 L21.2028125,18.4531738 L19.902875,19.7124883 L21.9161875,21.6628848 C22.16225,21.9012578 22.16225,22.2877285 21.9161875,22.5261016 C21.793125,22.6452578 21.6319375,22.7048965 21.4706875,22.7048965 C21.3095,22.7048965 21.14825,22.6453184 21.0251875,22.5261016 L21.0251875,22.5261016 L19.011875,20.5757051 L17.711875,21.8350801 L18.815625,22.9043984 C19.0616875,23.142832 19.0616875,23.5293027 18.815625,23.7676758 C18.6925625,23.8868926 18.531375,23.9464707 18.370125,23.9464707 C18.2089375,23.9464707 18.0476875,23.8868926 17.924625,23.7676758 L17.924625,23.7676758 L16.8208125,22.6983574 L15.5211875,23.9573691 L21.2698125,29.5263496 L44.47875,7.04263086 L38.730125,1.47365039 Z M2.32795069,5.96454584 L2.45571348,29.1565065 L4.11361856,27.5554862 L3.50812334,26.9284775 C3.22952618,26.6399817 3.23637714,26.1811427 3.52365203,25.9037246 C3.81087511,25.6263565 4.26967523,25.6354209 4.54832265,25.9239687 L4.54832265,25.9239687 L5.15381787,26.5509774 L6.7839021,24.9768233 L6.17840688,24.3498147 C5.89980972,24.0613189 5.90666068,23.6024799 6.19393557,23.3250617 C6.48115865,23.0476936 6.93995877,23.056758 7.21860619,23.3453059 L7.21860619,23.3453059 L7.82410141,23.9723145 L9.45361575,22.3987108 L8.84812054,21.7717022 C8.56952338,21.4832064 8.57642614,21.0243173 8.86364922,20.7469492 C9.1508723,20.4695811 9.60967243,20.4786455 9.88831985,20.7671934 L9.88831985,20.7671934 L10.4938151,21.394202 L12.1233294,19.8205983 L11.5178342,19.1935897 C11.239237,18.9050939 11.246088,18.4462549 11.5333629,18.1688367 C11.820586,17.8914686 12.2793861,17.900533 12.5580335,18.1890809 L12.5580335,18.1890809 L13.1635287,18.8160895 L14.7935611,17.2419855 L14.1880659,16.6149768 C13.9094688,16.326481 13.9163197,15.867642 14.2035946,15.5902239 C14.4908177,15.3128558 14.9496178,15.3219202 15.2282652,15.610468 L15.2282652,15.610468 L15.8337604,16.2374767 L17.4633266,14.663823 L16.8578314,14.0368143 C16.5792342,13.7483185 16.5860852,13.2894795 16.8733601,13.0120614 C17.1605831,12.7346933 17.6193833,12.7437577 17.8980307,13.0323055 L17.8980307,13.0323055 L18.5035259,13.6593142 L20.1330402,12.0857105 L19.527545,11.4587018 C19.2489479,11.170206 19.2558506,10.711317 19.5430737,10.4339489 C19.8302968,10.1565808 20.2890969,10.1656452 20.5677443,10.454193 L20.5677443,10.454193 L21.1732396,11.0812017 L22.803272,9.50709765 L22.1977768,8.88008899 C21.9191796,8.59159319 21.9260306,8.13275419 22.2133055,7.85533606 C22.5005285,7.57796796 22.9593287,7.58703234 23.2379761,7.8755802 L23.2379761,7.8755802 L23.8434713,8.50258885 L25.5013764,6.90156852 L2.32795069,5.96454584 Z M24.1767726,22.979824 C24.4324996,22.7322155 24.8467657,22.7322155 25.1024279,22.979824 C25.3580251,23.2274954 25.3580251,23.6289394 25.1023629,23.8765479 L25.1023629,23.8765479 L21.7054586,27.1672191 C21.5776925,27.2910548 21.4101942,27.3529412 21.2426959,27.3529412 C21.0752625,27.3529412 20.9077643,27.2910548 20.7799332,27.1672191 C20.524336,26.9195477 20.524336,26.5181037 20.7799332,26.2704952 L20.7799332,26.2704952 Z M24.8235385,21.8823529 C25.4514847,21.8823529 25.4504698,22.7941176 24.8235385,22.7941176 C24.1955439,22.7941176 24.1966071,21.8823529 24.8235385,21.8823529 Z M14.886776,9.97981394 C15.1734685,9.97790766 15.418248,10.1472738 15.5087572,10.4103998 C15.5993201,10.673474 15.5181371,10.9792754 15.3024674,11.1875452 L15.3024674,11.1875452 L7.75810431,18.473052 C7.54238106,18.6813735 7.23393268,18.7518347 6.97423294,18.6520941 C6.71447958,18.5524052 6.55375927,18.3018641 6.56566981,18.0154128 L6.56566981,18.0154128 L6.86756118,10.7790151 C6.87566668,10.5843206 6.96329919,10.3940908 7.10981302,10.252604 C7.25632685,10.1111173 7.44939188,10.0302806 7.64425066,10.0289748 L7.64425066,10.0289748 Z M13.0898963,11.4225693 L8.27102155,11.4552852 L8.07020287,16.2700309 L13.0898963,11.4225693 Z M8.13611047,7.99773499 C9.02099976,7.14320734 10.2826418,8.45254982 9.39912569,9.30562554 C8.51416802,10.1602192 7.25265725,8.85087586 8.13611047,7.99773499 Z M10.5296381,7.25880854 L16.1369216,7.31757976 C16.5588845,7.3219984 16.8925293,7.66760805 16.8822767,8.08930725 C16.8770703,8.3001291 16.7869006,8.49025964 16.6452901,8.62701135 C16.5036795,8.76376306 16.3106256,8.84724353 16.0996428,8.845088 L16.0996428,8.845088 L10.4923593,8.78631678 C10.0705041,8.78189927 9.73680411,8.43634285 9.74705933,8.01453607 C9.75747203,7.59289235 10.1078878,7.25449974 10.5296381,7.25880854 L10.5296381,7.25880854 Z" id="Combined-Shape"></path>
                                </g>
                            </g>
                        </g>
                    </g>
                </g>
            </g>
        </g>
    </g>
</svg>