<svg xmlns="http://www.w3.org/2000/svg" xmlns:xlink="http://www.w3.org/1999/xlink" width="24px" height="24px" viewBox="0 0 24 24" version="1.1">
    <!-- Generator: Sketch 63.1 (92452) - https://sketch.com -->
    <title>icon</title>
    <desc>Created with Sketch.</desc>
    <g id="Public" stroke="none" stroke-width="1" fill="none" fill-rule="evenodd">
        <g id="Public/Pages/Home-page-brand-manager" transform="translate(-777.000000, -7015.000000)" fill="#20C5E5" fill-rule="nonzero">
            <g id="premium" transform="translate(0.000000, 6845.000000)">
                <g id="column" transform="translate(769.000000, 162.000000)">
                    <g id="head">
                        <g id="icon">
                            <path d="M14.0036368,9.61246218 C16.7788704,8.01022174 20.0119321,7.58454826 23.1071813,8.41395764 C26.2025242,9.24336703 28.7896016,11.2284839 30.3918825,14.0037288 C31.8445852,16.5198946 32.335132,19.4737339 31.7732884,22.3208853 C31.2166479,25.1408491 29.6711795,27.6662492 27.4215551,29.4318965 C27.2178364,29.5917878 26.923274,29.5562564 26.7634772,29.3525837 C26.6035866,29.1489111 26.6391178,28.8543006 26.8427897,28.6945031 C29.9587576,26.2488376 31.4329291,22.3596979 30.9638042,18.6000743 C30.9006167,18.8695597 30.7683824,19.1126544 30.5762887,19.3047957 L30.5762887,19.3047957 L30.2729606,19.608125 C30.1841794,19.6970003 30.0645076,19.7454224 29.9415545,19.7454224 C29.9077576,19.7454224 29.8737732,19.7417661 29.8400232,19.734313 C29.683742,19.6996253 29.5558671,19.5874999 29.5011171,19.4369368 L29.5011171,19.4369368 L28.8638516,17.6846021 C28.8540079,17.6575551 28.8396173,17.6328988 28.8210079,17.6111018 L28.8210079,17.6111018 L28.2435549,16.9350211 C28.1980862,16.8817709 28.1318518,16.8512552 28.0618675,16.8512552 L28.0618675,16.8512552 L27.8380394,16.8512552 L27.8629769,16.8887085 C27.9869612,17.0746623 27.9623987,17.3221163 27.80443,17.4801326 C27.1860552,18.0984162 26.4255085,18.5852149 25.6049619,18.887841 L25.6049619,18.887841 L25.2517588,19.0180603 C25.0307901,19.0998106 24.7831964,19.004279 24.6741184,18.7952157 L24.6741184,18.7952157 L23.4611343,16.4717538 C23.4261656,16.4047691 23.4078843,16.3303313 23.4078843,16.2548154 L23.4078843,16.2548154 L23.4078843,15.9263142 L22.7534157,15.3016087 L22.0632284,15.0590297 C21.8190097,14.9732012 21.6906191,14.7056846 21.7764472,14.461418 C21.8622285,14.2172452 22.1296971,14.0886666 22.3740565,14.1746357 L22.3740565,14.1746357 L23.1594469,14.4506367 C23.2222125,14.4727149 23.2795875,14.5078713 23.3277281,14.553809 L23.3277281,14.553809 L24.2002122,15.386734 C24.2928841,15.4750937 24.3452903,15.5976723 24.3452903,15.7257353 L24.3452903,15.7257353 L24.3452903,16.1397837 L25.3141963,17.9957126 C25.8766962,17.7837431 26.4049773,17.469445 26.8617272,17.0766779 L26.8617272,17.0766779 L26.7901959,16.9692869 C26.6510241,16.7605986 26.6380866,16.4935038 26.7564459,16.2723467 C26.8748053,16.0512365 27.1041177,15.9137985 27.3550395,15.9137985 L27.3550395,15.9137985 L28.0618675,15.9137985 C28.4064455,15.9137985 28.7324142,16.0640335 28.9562891,16.3261126 L28.9562891,16.3261126 L29.5337421,17.0021933 C29.6255233,17.1095843 29.6965858,17.2314129 29.7448201,17.3642571 L29.7448201,17.3642571 L30.0685388,18.2545105 L30.0685388,18.2545105 L30.0688201,18.2432136 C30.0746326,17.8958216 30.2266013,17.5638985 30.4859606,17.3324758 L30.4859606,17.3324758 L30.6846636,17.1552876 C30.4412418,16.2321747 30.0751013,15.3296401 29.5801483,14.4723399 C27.72193,11.2537965 24.4791184,9.32225795 21.0340881,8.99455359 L21.0340881,8.99455359 L19.6858228,10.6857631 C19.6308384,10.7547165 19.5575259,10.8067479 19.4743697,10.8359043 L19.4743697,10.8359043 L16.4414174,11.8992208 L15.7535738,13.566524 L16.4527143,14.5458871 C16.8361048,13.9270879 17.5201515,13.5339458 18.2671513,13.5339458 L18.2671513,13.5339458 L18.5336356,13.5339458 C18.7924324,13.5339458 19.0023386,13.7438528 19.0023386,14.0026507 C19.0023386,14.2614485 18.7924324,14.4713556 18.5336356,14.4713556 L18.5336356,14.4713556 L18.2671513,14.4713556 C17.7639952,14.4713556 17.3117453,14.7895443 17.1417766,15.2631242 L17.1417766,15.2631242 L17.1302453,15.2952806 C17.3541672,15.2701555 17.5804796,15.2619992 17.7852295,15.2547335 C17.9155889,15.2501398 18.0388232,15.2457804 18.1362294,15.2376241 C18.3076982,15.2230459 19.176901,15.1796864 19.4387447,15.7335635 C19.485151,15.8317201 19.5294478,15.9888926 19.4805103,16.184737 C19.4835103,16.1867527 19.4865572,16.1887683 19.4895572,16.1907839 C19.6347759,16.2875812 19.8707446,16.4448474 20.0423539,16.5272071 C20.0931664,16.4032691 20.179932,16.3261595 20.2092289,16.302675 C20.3201351,16.2137997 20.4694788,16.1519713 20.7088694,16.0958617 C20.7982131,16.0748616 20.8918693,16.0806273 20.9781662,16.1125024 C21.0811505,16.1505182 21.2372911,16.1927996 21.402713,16.2375654 L21.5895969,16.2886358 C22.0298534,16.411057 22.4890232,16.5608928 22.7477907,16.8350833 C23.0768063,17.1838346 23.2700718,17.6841333 23.4406031,18.12551 C23.5050562,18.2922919 23.5659468,18.4498394 23.6268843,18.5800586 C23.6610561,18.6530433 23.6947592,18.728231 23.7289311,18.8044032 C23.9005404,19.187139 24.0779623,19.5828593 24.3679778,19.7724694 C24.4337434,19.8154539 24.6403684,19.8471415 24.7771027,19.8681416 C25.1233214,19.9212043 25.5542431,19.9872983 25.7237899,20.380581 C25.8967587,20.7816919 25.6172431,21.1863653 25.5253681,21.3193971 C25.3154151,21.6233357 25.0438214,21.8762742 24.7811339,22.1209157 C24.1751341,22.685246 23.9244935,22.9809346 24.0677904,23.4432645 C24.2380872,23.9927353 24.3988684,24.5116904 23.7745405,25.1910524 C23.7376498,25.2311775 23.7032905,25.2678339 23.6710405,25.3020997 C23.4858374,25.4993504 23.4299156,25.5587881 23.3529468,25.8012265 C23.25165,26.1203996 23.0952281,26.2964628 22.9695563,26.437979 C22.9070719,26.5083855 22.8577126,26.5639794 22.8158063,26.6356985 C22.7884313,26.6825736 22.7740876,26.7542927 22.7558532,26.8451367 C22.7192907,27.0278093 22.6691814,27.2778884 22.4657439,27.5276393 C22.1418378,27.9253752 21.4367442,28.5527526 20.7610413,28.5527995 C20.6221975,28.5528463 20.4847601,28.5263619 20.3519632,28.4659866 C20.0984164,28.3506737 19.782479,28.0642664 19.361026,26.8136835 C19.3086666,26.6581517 19.2287448,26.4821822 19.1440886,26.2957597 C18.8834636,25.7217262 18.5880575,25.071005 18.7999793,24.4149869 C18.8122136,24.3769243 18.8244011,24.3397991 18.8363543,24.303424 C18.9758542,23.8782661 19.0395105,23.6842498 18.8933074,23.3339047 C18.8702918,23.2787326 18.795573,23.1965136 18.7233387,23.1170601 C18.5780262,22.957122 18.3971356,22.7580432 18.3271513,22.4699952 C18.2834638,22.2899476 18.2844482,22.1322595 18.2853388,22.0055091 L18.2853052,21.9309763 C18.2837948,21.8021904 18.271879,21.7868364 18.2181201,21.7364924 C18.0892138,21.6158357 17.9619014,21.6257733 17.5600421,21.7251955 C17.4143078,21.7612894 17.2636984,21.7985552 17.1021672,21.8174927 C16.1106675,21.9341182 15.181699,21.5355854 14.6182148,20.7515981 C14.0354649,19.9407513 13.9466368,18.8587784 14.3864179,17.9278843 C14.5864335,17.5046952 14.8679647,17.1878658 15.1402615,16.8815366 C15.1922927,16.8230363 15.2447927,16.7639736 15.2972458,16.7035046 C15.3575739,16.6340356 15.4448552,16.5101445 15.5372926,16.3789409 C15.7480895,16.0797835 15.9245738,15.8388451 16.1058862,15.6734226 L16.1058862,15.6734226 L14.8398866,13.9000409 C14.7460897,13.7686029 14.7265428,13.5982585 14.7880897,13.4489611 L14.7880897,13.4489611 L15.654902,11.3476406 C15.7058082,11.2241714 15.8070582,11.1282648 15.933105,11.0841084 L15.933105,11.0841084 L19.0369323,9.99599488 L19.8739321,8.94603778 C18.0346045,8.96427223 16.17573,9.44085215 14.4723867,10.4242934 C14.0081368,10.6922788 13.5713088,10.9896549 13.1616214,11.3117342 C13.5399025,11.5474695 13.84234,11.8972521 14.0154962,12.3173943 C14.3090273,13.0297095 14.1590274,13.8539157 13.6334181,14.4172616 L13.6334181,14.4172616 L13.1190589,14.9684199 L11.8429811,17.1961627 C11.8094655,17.254663 11.7637155,17.3052413 11.7088718,17.3444758 L11.7088718,17.3444758 L10.8856532,17.9331343 L11.4603875,18.7761375 C11.5504343,18.9082317 11.5669812,19.0770292 11.5042624,19.2240298 C11.4415437,19.3709835 11.3082781,19.4759839 11.1506375,19.5023746 C11.1467469,19.5030308 10.753372,19.5688905 10.3579346,19.6273438 C9.94098161,19.6889378 9.68846605,19.7229223 9.51788797,19.7229692 C9.33226302,19.7229692 9.24385679,19.6826565 9.14626307,19.5937812 C9.11232558,19.5628436 9.08335683,19.5271247 9.05996621,19.4881714 C9.04107559,19.4685776 9.01037248,19.4387181 8.96321624,19.3947961 C8.9391225,19.8198602 8.9394975,20.2471743 8.96485686,20.674629 L8.96485686,20.674629 L10.1599815,20.2864088 C10.3061378,20.2389711 10.4662158,20.2661119 10.5885127,20.3591122 L10.5885127,20.3591122 L12.6298246,21.9111493 L13.6877931,22.1178689 C14.0979961,22.1980723 14.4544804,22.4508701 14.6659335,22.8113871 C14.8773866,23.171951 14.9239334,23.606437 14.7936678,24.0035635 C14.7590272,24.1092201 14.7588397,24.2210174 14.7931991,24.3267678 L14.7931991,24.3267678 L14.941699,24.7837539 C15.1900427,25.5484756 14.7700428,26.3727287 14.0053712,26.6211672 L14.0053712,26.6211672 L13.8030118,26.6868861 L13.3830588,28.8790038 C16.3410112,31.0992935 20.3001664,31.7379678 23.9573529,30.3323218 C24.1988997,30.2392746 24.4701184,30.3599782 24.5630246,30.6016197 C24.6559309,30.8432612 24.5353684,31.1144341 24.2937278,31.2072939 C22.9197751,31.7353427 21.4662286,32 20.0100571,32 C18.6707918,32 17.329464,31.7762648 16.0445737,31.3279506 C13.3339807,30.3821033 11.0496688,28.4901742 9.61243482,26.0007742 C8.01020087,23.2255762 7.58457598,19.9924546 8.41393513,16.897146 C9.24329429,13.8018374 11.22845,11.2147026 14.0036368,9.61246218 Z M25.2632856,30.0668042 C25.497768,29.9298313 25.7978368,30.0102349 25.9337188,30.246303 C26.0696009,30.4825194 25.9898867,30.785096 25.7556005,30.9221183 L25.7556005,30.9221183 L25.7367144,30.9330959 C25.6592567,30.9783909 25.5744899,31 25.4909984,31 C25.3218572,31 25.157278,30.9116846 25.0662812,30.7535971 C24.9303991,30.5173807 25.0101133,30.2148042 25.2443995,30.0777818 L25.2443995,30.0777818 Z M10.2163253,21.2537718 L9.06254434,21.6286326 C9.25988804,22.9672002 9.70763792,24.2910021 10.4242627,25.5321162 C11.0116532,26.5495419 11.7353093,27.4411078 12.5595122,28.19547 L12.5595122,28.19547 L12.9344183,26.2384782 C12.9665277,26.0707588 13.0873714,25.9336958 13.249887,25.8809143 L13.249887,25.8809143 L13.7156837,25.7295544 C13.9887305,25.6408197 14.1388243,25.3463967 14.0500899,25.0733019 L14.0500899,25.0733019 L13.9015899,24.6163627 C13.8053556,24.3202522 13.8058243,24.0072666 13.9028556,23.7113436 C13.9500118,23.56739 13.9338868,23.4162175 13.8572462,23.2855764 C13.7806056,23.1548884 13.6565744,23.0669506 13.5078869,23.037888 L13.5078869,23.037888 L12.3429497,22.8102621 C12.2725435,22.7965277 12.2062623,22.7668088 12.1491217,22.7233555 L12.1491217,22.7233555 L10.2163253,21.2537718 Z M27.234844,23.0007441 L27.3211544,23.0032849 C27.523806,23.0265995 27.691229,23.1665828 27.7435985,23.3565534 L27.7435985,23.3565534 L27.9833223,24.226484 C28.0068412,24.3116829 28.005446,24.4014871 27.9793859,24.4860624 L27.9793859,24.4860624 L27.3933058,26.3877344 C27.0810818,27.4007186 26.6989987,27.9097053 26.1907503,27.9896752 C26.1495423,27.9961515 26.1049959,28.0001332 26.0579082,28 C25.8166895,28 25.5062594,27.8959372 25.2110269,27.4912424 C24.797253,26.9241613 25.092336,26.2571057 25.2509393,25.8988002 L25.2509393,25.8988002 L25.2559222,25.8876226 C25.295735,25.7976265 25.2906525,25.7480231 25.2686782,25.6049216 C25.2432658,25.4398967 25.2084857,25.213851 25.3016645,24.9281276 C25.4517473,24.4674971 25.8446432,24.2849623 26.1315045,24.1516951 C26.251491,24.0959512 26.375663,24.0382405 26.4239964,23.9847033 C26.5100499,23.8893823 26.5927648,23.7166818 26.6727392,23.54969 C26.7202753,23.4504352 26.7694558,23.3477744 26.8240676,23.2508703 C26.9214819,23.0781218 27.1182537,22.9804501 27.3211544,23.0032849 Z M18.3130419,16.1683483 L18.2143232,16.1718464 C18.0945107,16.1818777 17.9603545,16.1866589 17.8183702,16.1916746 C17.464089,16.2042371 16.9788391,16.2214403 16.7697767,16.339097 C16.6671205,16.402941 16.430683,16.7385673 16.3036987,16.9188023 C16.1973393,17.069881 16.0967456,17.2125691 16.0053394,17.3179445 C15.9504019,17.3812259 15.8954644,17.4430074 15.8410426,17.5042733 C15.5918551,17.7845868 15.3766521,18.0267909 15.234199,18.3282452 C14.9399178,18.9512163 14.9956522,19.6701409 15.3796052,20.2043772 C15.7466363,20.7151292 16.3345424,20.9635676 16.9930422,20.8864111 C17.0959797,20.8743173 17.2121359,20.8455359 17.335089,20.8151608 C17.7354014,20.7161604 18.3402763,20.5665817 18.8589949,21.0521148 C19.2269167,21.3966474 19.2244792,21.7667269 19.2228854,22.0116497 C19.222276,22.1024469 19.2217604,22.1808691 19.2382604,22.2487912 C19.2518073,22.3044789 19.3396979,22.4012293 19.417276,22.486589 C19.5371353,22.6185895 19.6731197,22.7681682 19.7585259,22.9728721 C20.0390258,23.6450621 19.8876196,24.1067358 19.7272134,24.5956439 C19.7156822,24.6306596 19.7039634,24.6664723 19.692104,24.7031286 C19.5916978,25.0138642 19.7980884,25.4685534 19.997729,25.9082426 C20.0882914,26.1076965 20.1819477,26.3139472 20.2494476,26.5143855 C20.5231976,27.3268729 20.7043694,27.5616707 20.754385,27.6152959 C20.7982131,27.6179209 20.9268381,27.5987958 21.1471505,27.4589203 C21.3841973,27.3083104 21.6151035,27.087622 21.7389004,26.9356527 C21.7932754,26.8689025 21.8090254,26.7993866 21.8368222,26.6608704 C21.8649941,26.5201043 21.9001503,26.3448849 22.0064628,26.1629154 C22.0951972,26.0110398 22.1914315,25.9026644 22.2686815,25.8156641 C22.3652908,25.7069137 22.4184939,25.6470072 22.4595564,25.5176786 C22.6009314,25.0723644 22.771697,24.8905825 22.9878844,24.6604254 C23.0179313,24.6284565 23.0499938,24.5943314 23.0844,24.5568781 C23.3368218,24.2822833 23.3295093,24.2275331 23.172525,23.7209062 C22.839947,22.6479802 23.562103,21.9754152 24.1423685,21.4350382 C24.3701341,21.222928 24.5857121,21.0222085 24.7371183,20.8109889 C24.7012121,20.8050826 24.6658684,20.7996451 24.6350246,20.7949107 C24.3799309,20.75577 24.0908529,20.7114729 23.8550248,20.5573005 C23.3349468,20.2173617 23.0897906,19.6705159 22.8735095,19.1880765 C22.841447,19.1166388 22.8099001,19.0460916 22.7778376,18.977607 C22.7031657,18.817997 22.6366033,18.6458714 22.5661502,18.46348 C22.4266971,18.102588 22.2686815,17.6935084 22.0659472,17.4785857 C21.9518066,17.3576477 21.4351973,17.2177722 21.1576505,17.1426313 C21.0769318,17.1207406 20.9981818,17.0994124 20.9232287,17.0779904 C20.8900412,17.1407563 20.8454162,17.1927877 20.7977912,17.2316004 L20.7977912,17.2316004 L20.7408295,17.2885874 C20.6415474,17.3846566 20.4516195,17.5369277 20.1412133,17.516789 C19.7511196,17.4919451 19.3358541,17.2151472 18.9695261,16.9709275 C18.8399636,16.8845366 18.717573,16.8029269 18.6296356,16.7558642 C18.4998856,16.6864421 18.4102138,16.5601135 18.3876669,16.4146598 C18.3748231,16.331972 18.3844325,16.2486279 18.4140106,16.1726901 C18.3477763,16.1675339 18.2775575,16.1665495 18.2143232,16.1718464 Z M26.8150985,24.8913328 C26.7284472,24.939593 26.6425931,24.979458 26.5646118,25.0157251 C26.388718,25.09747 26.2719704,25.1555166 26.2524377,25.2153381 C26.2286696,25.2881122 26.2354463,25.3410736 26.2544309,25.4643146 C26.283979,25.6567797 26.3245891,25.9203398 26.1727125,26.263534 L26.1727125,26.263534 L26.1676798,26.2747595 C26.0735044,26.4876129 25.9311949,26.8092195 26.0264167,26.9398003 C26.0372793,26.9547197 26.0474442,26.9677681 26.0568119,26.9792815 C26.1380818,26.8723991 26.2788965,26.6312901 26.438048,26.1148197 L26.438048,26.1148197 Z M12.3892153,11.9791899 C10.6036533,13.6734932 9.46834111,15.8931266 9.08766933,18.2492136 C9.31848177,18.4511987 9.47330986,18.5894336 9.5847317,18.692934 C9.61449732,18.7205904 9.64327856,18.7473561 9.67079418,18.7737468 C9.81395039,18.7581374 10.0292472,18.7286998 10.2691534,18.6929809 L10.2691534,18.6929809 L9.85295038,18.0824786 C9.70941917,17.8719153 9.7603254,17.5853673 9.9676066,17.437148 L9.9676066,17.437148 L11.0804657,16.641395 L12.3325904,14.4553242 C12.3505435,14.4240116 12.3720591,14.3948553 12.3966685,14.3684645 L12.3966685,14.3684645 L12.9480589,13.7776967 C13.2241526,13.4817737 13.3029963,13.0487408 13.1487776,12.6745831 C13.0117152,12.34191 12.7311215,12.0868622 12.3892153,11.9791899 Z M20.0273891,14.3306091 C20.1157891,14.0731206 20.391918,13.9377798 20.6437225,14.0279082 L20.6437225,14.0279082 L20.6763647,14.0395695 C20.9283625,14.1298461 21.0610108,14.4117938 20.9726109,14.6693316 C20.9027807,14.872664 20.7159222,15 20.5162969,15 C20.4631506,15 20.4091821,14.9910069 20.3562292,14.9720325 L20.3562292,14.9720325 L20.3236353,14.9603712 C20.0716375,14.8700452 19.9389892,14.5881469 20.0273891,14.3306091 Z"></path>
                        </g>
                    </g>
                </g>
            </g>
        </g>
    </g>
</svg>