<svg xmlns="http://www.w3.org/2000/svg" xmlns:xlink="http://www.w3.org/1999/xlink" width="25px" height="25px" viewBox="0 0 25 25" version="1.1">
    <!-- Generator: Sketch 63.1 (92452) - https://sketch.com -->
    <title>Combined Shape</title>
    <desc>Created with Sketch.</desc>
    <g id="Public" stroke="none" stroke-width="1" fill="none" fill-rule="evenodd">
        <g id="Public/Pages/Home-page-brand-manager" transform="translate(-217.000000, -5940.000000)" fill="#20C5E5" fill-rule="nonzero">
            <g id="near-you" transform="translate(0.000000, 5804.000000)">
                <g id="icon" transform="translate(208.000000, 128.000000)">
                    <g id="search" transform="translate(9.000000, 8.000000)">
                        <path d="M9.765625,0 C15.1503906,0 19.53125,4.38085938 19.53125,9.765625 C19.53125,11.6970215 18.9719727,13.5490723 17.9102051,15.1483887 L17.9102051,15.1483887 L24.4277832,21.6659668 C24.7967285,22.0346191 25,22.5250488 25,23.046875 C25,23.5687012 24.7967285,24.0591309 24.4276367,24.4279297 C24.0587891,24.7967773 23.5684082,25 23.046875,25 C22.5253418,25 22.0349609,24.7967773 21.665918,24.4277832 L21.665918,24.4277832 L15.1483887,17.9102539 C13.5491211,18.9719238 11.6970703,19.53125 9.765625,19.53125 C4.38085938,19.53125 0,15.1503906 0,9.765625 C0,4.38085938 4.38085938,0 9.765625,0 Z M19.4015137,18.0208496 C18.9771973,18.515332 18.5152832,18.9771973 18.0208008,19.4015625 L18.0208008,19.4015625 L22.3564941,23.7372559 C22.5410645,23.9218262 22.7862305,24.0234375 23.046875,24.0234375 C23.3075195,24.0234375 23.5526855,23.9218262 23.7372559,23.7372559 C23.9218262,23.5527832 24.0234375,23.3077148 24.0234375,23.046875 C24.0234375,22.7860352 23.9218262,22.5409668 23.7373535,22.3566895 L23.7373535,22.3566895 Z M17.323877,15.9431641 C16.910498,16.4484863 16.4485352,16.9104492 15.9431641,17.323877 L15.9431641,17.323877 L17.3284668,18.7091797 C17.8256836,18.2879395 18.2878906,17.8256836 18.7091797,17.3284668 L18.7091797,17.3284668 Z M9.765625,0.9765625 C4.91933594,0.9765625 0.9765625,4.91933594 0.9765625,9.765625 C0.9765625,14.6119141 4.91933594,18.5546875 9.765625,18.5546875 C11.6296387,18.5546875 13.4114746,17.9760254 14.9186523,16.8812988 L14.9186523,16.8812988 L15.2362988,16.6396483 C15.8596381,16.1429638 16.4117885,15.5654506 16.88125,14.9187012 C17.9760254,13.4114746 18.5546875,11.6296387 18.5546875,9.765625 C18.5546875,4.91933594 14.6119141,0.9765625 9.765625,0.9765625 Z M10,2 C14.41125,2 18,5.58875 18,10 C18,14.41125 14.41125,18 10,18 C5.58875,18 2,14.41125 2,10 C2,5.58875 5.58875,2 10,2 Z M10,3 C6.1402,3 3,6.1402 3,10 C3,13.8598 6.1402,17 10,17 C13.8598,17 17,13.8598 17,10 C17,6.1402 13.8598,3 10,3 Z M14.5,9 C14.776,9 15,9.224 15,9.5 C15,9.776 14.776,10 14.5,10 C14.224,10 14,9.776 14,9.5 C14,9.224 14.224,9 14.5,9 Z M9.48886589,4 C10.6973912,4 11.8588388,4.33045454 12.847619,4.95562688 C13.8134224,5.56619569 14.546379,6.41161223 14.9673415,7.40041693 C15.0641858,7.62789672 14.9383517,7.88312763 14.6863413,7.97052822 C14.6287041,7.99051432 14.5694046,8 14.5111318,8 C14.3146077,8 14.1293764,7.89234859 14.0546777,7.71692973 C13.3328673,6.0214641 11.4980558,4.88238863 9.48886589,4.88238863 C9.21891414,4.88238863 9,4.68482181 9,4.44119431 C9,4.19756681 9.21891414,4 9.48886589,4 Z" id="Combined-Shape"></path>
                    </g>
                </g>
            </g>
        </g>
    </g>
</svg>